<?xml version="1.0" encoding="UTF-8"?>
<svg width="242px" height="340px" viewBox="0 0 242 340" version="1.1" xmlns="http://www.w3.org/2000/svg" xmlns:xlink="http://www.w3.org/1999/xlink">
    <title>clubs/empty</title>
    <g id="Page-1" stroke="none" stroke-width="1" fill="none" fill-rule="evenodd">
        <g id="Empty-Slots" transform="translate(-570.000000, -60.000000)" fill="#FFFFFF">
            <g id="clubs/empty" transform="translate(570.000000, 60.000000)">
                <polygon id="BG" fill-opacity="0.1" points="0 0 242 0 242 340 0 340"></polygon>
                <path d="M141.832078,158.001129 C139.49568,158.001129 137.269273,158.458238 135.238923,159.28298 C137.145326,156.584739 138.264178,153.315921 138.264178,149.790669 C138.264178,140.540528 130.577426,133.041667 121.095924,133.041667 C111.614422,133.041667 103.928002,140.540528 103.928002,149.790669 C103.928002,153.147018 104.943841,156.269949 106.686088,158.890385 C104.95381,158.316891 103.098914,158.001129 101.167922,158.001129 C91.6860877,158.001129 84,165.49999 84,174.750131 C84,184.000272 91.6860877,191.499133 101.167922,191.499133 C103.30926,191.499133 105.357554,191.113346 107.248006,190.41439 C107.247674,190.41828 115.237816,188.313309 120.490142,178.986659 L120.490142,184.602295 C120.490142,184.602295 117.797187,202.30377 98.8115862,204.241459 L95.7816792,204.241459 L95.7816792,207 L147.487483,207 L147.487483,204.241459 L144.457909,204.241459 C125.472308,202.30377 122.779021,184.602295 122.779021,184.602295 L122.779021,179.364665 C123.757311,181.466395 129.16615,191.742601 141.321998,191.487462 C141.491803,191.491353 141.660944,191.499133 141.832078,191.499133 C151.313912,191.499133 159,184.000272 159,174.750131 C159,165.49999 151.313912,158.001129 141.832078,158.001129 Z" id="Trefle" opacity="0.2"></path>
            </g>
        </g>
    </g>
</svg>