<?xml version="1.0" encoding="UTF-8"?>
<svg width="242px" height="340px" viewBox="0 0 242 340" version="1.1" xmlns="http://www.w3.org/2000/svg" xmlns:xlink="http://www.w3.org/1999/xlink">
    <title>espades/empty</title>
    <g id="Page-1" stroke="none" stroke-width="1" fill="none" fill-rule="evenodd">
        <g id="Empty-Slots" transform="translate(-1102.000000, -61.000000)" fill="#FFFFFF">
            <g id="espades/empty" transform="translate(1102.000000, 61.000000)">
                <polygon id="BG" fill-opacity="0.1" points="0 0 242 0 242 340 0 340"></polygon>
                <path d="M138.863278,195.448891 C153.15907,195.608484 161.953612,186.510511 157.116241,176.934051 C152.27887,167.357298 147.456418,165.202646 139.862827,158.259617 C132.265507,151.316589 121.21825,139.305969 121.270465,136.472973 C121.32641,139.305969 110.734172,151.316589 103.136852,158.259617 C95.5432609,165.202646 90.7245384,167.357298 85.8834379,176.934051 C81.046067,186.510511 89.8443383,195.608484 104.136401,195.448891 C113.94914,195.339189 118.365059,189.739718 120.166486,186.238882 L120.166486,190.820691 C120.166486,190.820691 117.03357,207.347766 94.9241372,209.156974 L91.3996071,209.156974 L91.3996071,211.732345 L151.603802,211.732345 L151.603802,209.156974 L148.075542,209.156974 C125.969839,207.347766 122.833193,190.820691 122.833193,190.820691 L122.833193,186.840492 C124.955371,190.345121 129.59507,195.345316 138.863278,195.448891" id="Pique" opacity="0.2"></path>
            </g>
        </g>
    </g>
</svg>