<?xml version="1.0" encoding="UTF-8"?>
<svg width="242px" height="340px" viewBox="0 0 242 340" version="1.1" xmlns="http://www.w3.org/2000/svg" xmlns:xlink="http://www.w3.org/1999/xlink">
    <title>hearts/empty</title>
    <g id="Page-1" stroke="none" stroke-width="1" fill="none" fill-rule="evenodd">
        <g id="Empty-Slots" transform="translate(-836.000000, -60.000000)" fill="#FFFFFF">
            <g id="hearts/empty" transform="translate(836.000000, 60.000000)">
                <polygon id="BG" fill-opacity="0.1" points="0 0 242 0 242 340 0 340"></polygon>
                <path d="M134.551088,135.61125 C122.37666,135.833039 119.956389,152.260202 119.956389,152.260202 C119.956389,152.260202 117.146997,135.833039 104.972569,135.61125 C92.7978448,135.389109 85.305638,148.042341 89.4264557,161.361644 C93.5469763,174.680594 97.652645,177.677561 104.122148,187.333826 C110.591353,196.990444 120.003321,213.695019 119.956389,217.635117 C119.909754,213.695019 128.932007,196.990444 135.401509,187.333826 C141.871012,177.677561 145.976681,174.680594 150.097201,161.361644 C154.217722,148.042341 146.725812,135.389109 134.551088,135.61125" id="Coeur" opacity="0.2"></path>
            </g>
        </g>
    </g>
</svg>